<svg width="20" height="20" viewBox="0 0 20 20" fill="none" xmlns="http://www.w3.org/2000/svg">
<path fill-rule="evenodd" clip-rule="evenodd" d="M1.875 10C1.875 5.5142 5.5142 1.875 10 1.875C14.4858 1.875 18.125 5.5142 18.125 10C18.125 14.4858 14.4858 18.125 10 18.125C5.5142 18.125 1.875 14.4858 1.875 10ZM16.875 10C16.875 6.20455 13.7954 3.125 10 3.125C6.20455 3.125 3.125 6.20455 3.125 10C3.125 13.7954 6.20455 16.875 10 16.875C13.7954 16.875 16.875 13.7954 16.875 10ZM10.0068 5.62701L9.99166 5.62697C9.76119 5.62918 9.54152 5.72496 9.38306 5.89234C9.22459 6.05975 9.14097 6.28438 9.15142 6.51467L9.37569 11.2794C9.41307 12.0736 10.587 12.0735 10.6243 11.2793L10.8481 6.51566C10.8588 6.28156 10.773 6.05437 10.6109 5.88646C10.4587 5.72871 10.2515 5.63605 10.0327 5.62757L10.0176 5.62717L10.0068 5.62701ZM9.21875 13.5902C9.21875 14.0217 9.56853 14.3715 10 14.3715C10.4315 14.3715 10.7812 14.0217 10.7812 13.5902C10.7812 13.1588 10.4315 12.809 10 12.809C9.56853 12.809 9.21875 13.1588 9.21875 13.5902Z" fill="#F2C94C"/>
</svg>
