<svg width="29" height="28" viewBox="0 0 29 28" fill="none" xmlns="http://www.w3.org/2000/svg">
<path d="M28.1013 22L10.2507 4.586C9.86018 4.22239 9.34109 4.01952 8.80125 4.01952C8.26141 4.01952 7.74232 4.22239 7.3518 4.586L4.70097 7.172C4.31713 7.54731 4.10156 8.05583 4.10156 8.586C4.10156 9.11617 4.31713 9.62469 4.70097 10L22.5505 27.414C22.9352 27.7885 23.4565 27.9987 24 27.9987C24.5434 27.9987 25.0647 27.7885 25.4494 27.414L28.1013 24.828C28.4856 24.4529 28.7015 23.9443 28.7015 23.414C28.7015 22.8837 28.4856 22.3751 28.1013 22ZM6.15042 8.586L8.80125 6L13.9266 11L11.2747 13.587L6.14939 8.587L6.15042 8.586ZM0 14L2.05014 12L4.10028 14L2.05014 16L0 14ZM12.3008 2L14.351 0L16.4011 2L14.351 4L12.3008 2ZM0 2L2.05014 0L4.10028 2L2.05014 4L0 2Z" fill="#F2C94C"/>
</svg>
